<?xml version="1.0" encoding="UTF-8" standalone="no"?>
<svg width="117px" height="116px" viewBox="0 0 117 116" version="1.1" xmlns="http://www.w3.org/2000/svg" xmlns:xlink="http://www.w3.org/1999/xlink" xmlns:sketch="http://www.bohemiancoding.com/sketch/ns">
    <!-- Generator: Sketch 3.3.2 (12043) - http://www.bohemiancoding.com/sketch -->
    <title>XMLID_1_ + XMLID_20_ + XMLID_18_</title>
    <desc>Created with Sketch.</desc>
    <defs></defs>
    <g id="Page-1" stroke="none" stroke-width="1" fill="none" fill-rule="evenodd" sketch:type="MSPage">
        <g id="XMLID_1_-+-XMLID_20_-+-XMLID_18_" sketch:type="MSLayerGroup" transform="translate(0.000000, -1.000000)">
            <circle id="XMLID_1_" fill="#229FFF" sketch:type="MSShapeGroup" cx="58.3" cy="58.9" r="57.9"></circle>
            <g id="XMLID_20_" transform="translate(33.000000, 23.000000)" fill="#FFFFFF" sketch:type="MSShapeGroup">
                <g id="XMLID_25_">
                    <path d="M28.2,48.8 C27.3,48.8 26.6,48.3 25.8,47.8 C25.3,47.5 24.7,47.1 24.3,47.1 C23.9,47.1 23.3,47.5 22.8,47.8 C21.9,48.3 21,48.9 20,48.7 C18.9,48.5 18.3,47.6 17.7,46.9 C17.3,46.4 16.9,45.9 16.6,45.8 C16.3,45.7 15.6,45.8 15.1,45.9 C14,46.1 12.9,46.2 12.2,45.8 C11.2,45.2 10.9,44.3 10.7,43.3 C10.5,42.7 10.3,42.1 10,41.8 C9.7,41.6 9,41.5 8.5,41.4 C7.5,41.3 6.5,41.1 5.8,40.2 C5.1,39.4 5.1,38.3 5.2,37.3 C5.2,36.7 5.2,36 5.1,35.8 C4.9,35.5 4.3,35.2 3.8,34.9 C2.9,34.4 2,33.9 1.6,32.9 C1.2,31.9 1.6,30.9 2,30 C2.2,29.4 2.5,28.8 2.4,28.5 C2.3,28.2 1.9,27.7 1.5,27.2 C0.8,26.4 0.1,25.7 0.1,24.6 C0.1,23.5 0.9,22.7 1.5,22 C1.9,21.6 2.3,21 2.4,20.7 C2.5,20.3 2.2,19.7 2,19.2 C1.6,18.3 1.2,17.3 1.6,16.3 C2,15.3 3,14.8 3.8,14.3 C4.3,14 4.9,13.7 5.1,13.4 C5.3,13.1 5.3,12.4 5.2,11.9 C5.2,10.9 5.1,9.8 5.8,9 C6.5,8.2 7.5,8 8.5,7.8 C9.1,7.7 9.8,7.6 10,7.4 C10.3,7.2 10.5,6.5 10.7,5.9 C11,4.9 11.4,3.9 12.2,3.4 C13,2.9 14.1,3.1 15.2,3.3 C15.9,3.4 16.5,3.5 16.7,3.4 C17,3.3 17.4,2.7 17.8,2.3 C18.4,1.5 19.2,0.7 20.1,0.5 C21,0.3 22,0.9 22.9,1.4 C23.4,1.7 24,2.1 24.4,2.1 C24.8,2.1 25.4,1.7 25.9,1.4 C26.8,0.9 27.6,0.3 28.7,0.5 C29.8,0.7 30.4,1.6 31,2.3 C31.4,2.8 31.8,3.3 32.1,3.4 C32.4,3.5 33.1,3.4 33.6,3.3 C34.7,3.1 35.8,3 36.5,3.4 C37.5,4 37.8,4.9 38,5.9 C38.2,6.5 38.4,7.1 38.7,7.4 C39,7.6 39.7,7.7 40.2,7.8 C41.2,7.9 42.2,8.1 42.9,9 C43.6,9.8 43.6,10.9 43.5,11.9 C43.5,12.5 43.5,13.2 43.6,13.4 C43.8,13.7 44.4,14 44.9,14.3 C45.8,14.8 46.7,15.3 47.1,16.3 C47.5,17.3 47.1,18.3 46.7,19.2 C46.5,19.8 46.2,20.4 46.3,20.7 C46.4,21 46.8,21.5 47.2,22 C47.9,22.8 48.6,23.5 48.6,24.6 C48.6,25.7 47.8,26.5 47.2,27.2 C46.8,27.6 46.4,28.2 46.3,28.5 C46.2,28.9 46.5,29.5 46.7,30 C47.1,30.9 47.5,31.9 47.1,32.9 C46.7,33.9 45.7,34.4 44.9,34.9 C44.4,35.2 43.8,35.5 43.6,35.8 C43.4,36.1 43.4,36.8 43.5,37.3 C43.5,38.3 43.6,39.4 42.9,40.2 C42.2,41 41.2,41.2 40.2,41.4 C39.6,41.5 38.9,41.6 38.7,41.8 C38.4,42 38.2,42.7 38,43.3 C37.7,44.3 37.3,45.3 36.5,45.8 C35.7,46.3 34.6,46.1 33.5,45.9 C32.8,45.8 32.2,45.7 32,45.8 C31.7,45.9 31.3,46.5 30.9,46.9 C30.3,47.7 29.5,48.5 28.6,48.7 C28.5,48.8 28.3,48.8 28.2,48.8 L28.2,48.8 Z M24.3,45.2 C25.2,45.2 26,45.7 26.7,46.2 C27.2,46.5 27.8,46.9 28.1,46.9 L28.2,46.9 C28.5,46.8 29,46.2 29.4,45.7 C30,45 30.6,44.3 31.3,44 C32.1,43.7 33,43.9 33.9,44.1 C34.6,44.2 35.3,44.3 35.5,44.2 C35.8,44 36,43.3 36.2,42.7 C36.5,41.8 36.8,41 37.5,40.4 C38.2,39.8 39,39.7 39.9,39.5 C40.5,39.4 41.3,39.3 41.4,39 C41.6,38.7 41.6,38 41.6,37.4 C41.6,36.5 41.6,35.6 42,34.8 C42.5,34 43.3,33.6 44,33.2 C44.6,32.9 45.2,32.5 45.4,32.2 C45.5,31.9 45.2,31.2 45,30.7 C44.7,29.9 44.3,29.1 44.5,28.1 C44.7,27.2 45.3,26.6 45.9,25.9 C46.3,25.4 46.8,24.8 46.8,24.5 C46.8,24.1 46.3,23.6 45.9,23.1 C45.3,22.4 44.7,21.7 44.5,20.9 C44.3,20 44.7,19.2 45,18.3 C45.2,17.7 45.5,17 45.4,16.8 C45.3,16.6 44.6,16.1 44,15.8 C43.2,15.4 42.5,14.9 42,14.2 C41.5,13.5 41.6,12.5 41.6,11.6 C41.6,11 41.6,10.2 41.4,10 C41.2,9.7 40.4,9.6 39.9,9.5 C39,9.4 38.2,9.2 37.5,8.6 C36.8,8 36.5,7.1 36.2,6.3 C36,5.7 35.8,5 35.5,4.8 C35.3,4.7 34.6,4.8 33.9,4.9 C33,5.1 32.1,5.2 31.3,5 C30.4,4.7 29.9,4 29.4,3.3 C29,2.8 28.5,2.2 28.2,2.1 C27.8,2.1 27.2,2.5 26.7,2.8 C25.9,3.3 25.2,3.8 24.3,3.8 C23.4,3.8 22.6,3.3 21.9,2.8 C21.4,2.5 20.8,2.1 20.5,2.1 C20.1,2.2 19.6,2.8 19.2,3.3 C18.6,4 18,4.7 17.3,5 C16.5,5.3 15.6,5.1 14.7,4.9 C14,4.8 13.3,4.7 13.1,4.8 C12.8,5 12.6,5.7 12.4,6.3 C12.1,7.2 11.8,8 11.1,8.6 C10.4,9.2 9.6,9.3 8.7,9.5 C8.1,9.6 7.3,9.7 7.2,10 C7,10.3 7,11 7,11.6 C7,12.5 7,13.4 6.6,14.2 C6.1,15 5.3,15.4 4.6,15.8 C4,16.1 3.4,16.5 3.2,16.8 C3.1,17.1 3.4,17.8 3.6,18.3 C3.9,19.1 4.3,19.9 4.1,20.9 C3.9,21.8 3.3,22.4 2.7,23.1 C2.3,23.6 1.8,24.2 1.8,24.5 C1.8,24.9 2.3,25.4 2.7,25.9 C3.3,26.6 3.9,27.3 4.1,28.1 C4.3,28.9 3.9,29.8 3.6,30.7 C3.4,31.3 3.1,32 3.2,32.2 C3.3,32.5 4,32.9 4.6,33.2 C5.4,33.6 6.1,34.1 6.6,34.8 C7.1,35.6 7,36.5 7,37.4 C7,38 7,38.8 7.2,39 C7.4,39.3 8.2,39.4 8.7,39.5 C9.6,39.6 10.4,39.8 11.1,40.4 C11.8,41 12.1,41.9 12.4,42.7 C12.6,43.3 12.8,44 13.1,44.2 C13.3,44.3 14,44.2 14.7,44.1 C15.6,43.9 16.5,43.8 17.3,44 C18.2,44.3 18.7,45.3 19.2,45.9 C19.6,46.4 20.1,47.3 20.4,47.3 L20.4,47.3 C20.8,47.3 21.4,46.7 21.9,46.4 C22.6,45.9 23.5,45.2 24.3,45.2 L24.3,45.2 Z" id="XMLID_26_"></path>
                </g>
                <g id="XMLID_23_" transform="translate(3.000000, 44.000000)">
                    <path d="M15,26 C14.6,26 14.2,25.9 13.8,25.6 L9,22.2 L3.1,23.1 C2.4,23.2 1.7,23 1.3,22.4 C0.8,21.8 0.6,21.2 0.8,20.6 L5.3,1.1 C5.4,0.6 6,0.2 6.5,0.4 C7,0.5 7.4,1.1 7.2,1.6 L2.7,21.1 L2.7,21.2 L2.8,21.2 L8.7,20.3 C9.2,20.2 9.8,20.3 10.2,20.7 L15,24.1 L15.1,24.1 C15.2,24.1 15.2,24 15.2,24 L19.3,6.6 C19.4,6.1 20,5.7 20.5,5.9 C21,6 21.4,6.6 21.2,7.1 L17.1,24.5 C16.9,25.2 16.5,25.7 15.8,26 L15,26 L15,26 Z" id="XMLID_24_"></path>
                </g>
                <g id="XMLID_21_" transform="translate(22.000000, 47.000000)">
                    <path d="M7.7,29.8 C7.4,29.8 7.2,29.8 6.9,29.7 C6.2,29.4 5.8,28.9 5.6,28.2 L0.1,4.3 C-4.0939474e-14,3.8 0.3,3.2 0.8,3.1 C1.3,3 1.9,3.3 2,3.8 L7.5,27.7 C7.5,27.7 7.5,27.8 7.6,27.8 L7.7,27.8 L12.5,24.4 C12.9,24.1 13.5,24 14,24.1 L19.9,25 L20,25 L14.7,2.1 C14.6,1.6 14.9,1 15.4,0.9 C15.9,0.8 16.5,1.1 16.6,1.6 L21.9,24.5 C22.1,25.2 21.9,25.9 21.4,26.3 C20.9,26.8 20.2,27.1 19.6,27 L13.7,26.1 L9,29.5 C8.6,29.7 8.2,29.8 7.7,29.8 L7.7,29.8 Z" id="XMLID_22_"></path>
                </g>
            </g>
            <g id="XMLID_18_" transform="translate(48.000000, 40.000000)" fill="#FFFFFF" sketch:type="MSShapeGroup">
                <path d="M7.9,13.9 L0.7,6.6 L2.1,5.2 L7.9,11 L18.8,0.2 L20.2,1.6 L7.9,13.9 Z" id="XMLID_19_"></path>
            </g>
        </g>
    </g>
</svg>