<?xml version="1.0" encoding="UTF-8" standalone="no"?>
<svg width="158px" height="158px" viewBox="0 0 158 158" version="1.1" xmlns="http://www.w3.org/2000/svg" xmlns:xlink="http://www.w3.org/1999/xlink" xmlns:sketch="http://www.bohemiancoding.com/sketch/ns">
    <!-- Generator: Sketch 3.3.2 (12043) - http://www.bohemiancoding.com/sketch -->
    <title>XMLID_41_ + XMLID_2_</title>
    <desc>Created with Sketch.</desc>
    <defs></defs>
    <g id="Page-1" stroke="none" stroke-width="1" fill="none" fill-rule="evenodd" sketch:type="MSPage">
        <g id="XMLID_41_-+-XMLID_2_" sketch:type="MSLayerGroup">
            <circle id="XMLID_41_" fill="#229FFF" sketch:type="MSShapeGroup" cx="79" cy="78.9" r="78.7"></circle>
            <g id="XMLID_2_" transform="translate(38.000000, 33.000000)" fill="#FFFFFF" sketch:type="MSShapeGroup">
                <path d="M71.4,6.8 C68.6,6.4 65.9,7.5 64,9.5 C64,8.2 64.1,6.9 64.1,5.5 L66.5,5.5 L66.5,0.7 L13,0.7 L13,5.5 L15.3,5.5 C15.3,6.9 15.3,8.3 15.4,9.6 C15,9.2 14.6,8.8 14.2,8.5 C12.4,7.2 10.2,6.6 8,6.9 C3.4,7.5 0.2,11.8 0.9,16.4 C1.6,21.2 6.2,23.1 10.2,24.9 C13.9,26.5 17.4,28 17.8,31.2 C17.9,31.7 17.7,32.2 17.5,32.5 C17.2,32.9 16.8,33.1 16.3,33.2 C15.8,33.3 15.3,33.1 15,32.9 C14.6,32.6 14.4,32.2 14.3,31.7 L14.2,30.7 L12.2,31 L12.3,32 C12.4,33 13,33.9 13.8,34.5 C14.6,35.1 15.6,35.4 16.6,35.2 C17.4,35.1 18.2,34.7 18.8,34.1 C18.9,34 19,33.9 19.1,33.7 C19.5,34.9 20,36.1 20.5,37.1 C23.2,43 27,47 31.8,49 L31.8,54.2 L34.1,54.2 L34.1,60.7 C31,62.1 29.2,64.9 29,69 L24.8,69 L24.8,72.7 L21.1,72.7 L21.1,89.6 L20.2,89.6 L20.2,94.4 L59.6,94.4 L59.6,89.6 L58.7,89.6 L58.7,72.7 L55,72.7 L55,69 L50.8,69 C50.6,65 48.8,62.1 45.7,60.7 L45.7,54.2 L48,54.2 L48,49 C50.3,48.1 52.3,46.7 54.1,44.9 L54.1,44.9 C56.8,42.2 59,38.5 60.6,33.7 C61.2,34.5 62.1,35 63,35.1 C64.2,35.3 65.4,34.8 66.2,34 C66.8,33.4 67.2,32.7 67.3,31.8 L67.4,30.8 L65.4,30.5 L65.3,31.5 C65.2,32.5 64.2,33.2 63.3,33 C62.8,32.9 62.4,32.7 62.1,32.3 C61.8,31.9 61.7,31.4 61.8,31 C62.2,27.8 65.7,26.3 69.4,24.7 C73.5,23 78.1,21 78.7,16.2 C79,14 78.4,11.8 77.1,10 C75.6,8.2 73.6,7.1 71.4,6.8 L71.4,6.8 Z M57.4,92.3 L22,92.3 L22,91.5 L57.4,91.5 L57.4,92.3 L57.4,92.3 Z M56.5,89.5 L22.9,89.5 L22.9,74.6 L56.5,74.6 L56.5,89.5 L56.5,89.5 Z M52.8,72.6 L26.7,72.6 L26.7,70.9 L39.7,70.9 L50.5,70.9 L52.7,70.9 L52.8,72.6 L52.8,72.6 Z M15,2.6 L64.5,2.6 L64.5,3.4 L64.2,3.4 L48,3.4 L15,3.4 L15,2.6 L15,2.6 Z M11,22.9 C7.1,21.2 3.4,19.6 2.9,16 C2.4,12.5 4.8,9.3 8.3,8.8 C10,8.6 11.7,9 13,10 C14.4,11 15.2,12.5 15.5,14.2 L15.6,15.2 L15.7,15.2 C16,19.2 16.5,22.9 17.1,26.2 C15.4,24.8 13.2,23.8 11,22.9 L11,22.9 Z M48.5,68.9 L30.9,68.9 C31.1,65.8 32.3,63.7 34.6,62.5 L44.9,62.5 C47.1,63.6 48.3,65.7 48.5,68.9 L48.5,68.9 Z M43.4,54.1 L43.4,59.8 L43.4,60.5 L36,60.5 L36,54.1 L39.7,54.1 L43.4,54.1 L43.4,54.1 Z M45.7,52.1 L36.1,52.1 L34,52.1 L33.7,52.1 L33.7,49.5 C35.1,49.9 36.6,50.1 38.1,50.2 C38.6,50.2 39.2,50.3 39.7,50.3 C40.3,50.3 40.9,50.3 41.6,50.2 C41.8,50.2 42,50.2 42.2,50.1 C42.6,50.1 43,50 43.3,50 C43.6,50 43.8,49.9 44,49.9 C44.4,49.8 44.7,49.7 45,49.7 C45.2,49.6 45.4,49.6 45.6,49.6 L45.7,52.1 L45.7,52.1 Z M52.4,43.4 C50.7,45.1 48.7,46.4 46.5,47.2 L46.5,47.2 L46.3,47.3 C44.8,47.8 43.2,48.2 41.4,48.3 C40.8,48.3 40.2,48.4 39.6,48.4 L39.6,48.4 C39,48.4 38.5,48.4 38,48.3 L37.7,48.3 C37.2,48.3 36.7,48.2 36.2,48.1 L36.1,48.1 C35,47.9 34,47.6 33,47.3 L32.8,47.2 C28.2,45.5 24.7,41.8 22.2,36.2 C19,29.1 17.4,19 17.3,5.4 L48.3,5.4 L62.1,5.4 C62,24.5 58.8,37 52.4,43.4 L52.4,43.4 L52.4,43.4 Z M75.3,11.2 C76.3,12.6 76.8,14.2 76.5,15.9 C76,19.6 72.3,21.1 68.4,22.8 C66.2,23.7 64,24.7 62.4,26 C63,22.7 63.5,19.1 63.8,15.1 L63.8,15.1 L63.9,14.1 C64.4,10.6 67.6,8.2 71.1,8.7 C72.8,9 74.3,9.9 75.3,11.2 L75.3,11.2 Z" id="XMLID_6_"></path>
                <path d="M25.6,86.9 L53.8,86.9 L53.8,78.4 L25.6,78.4 L25.6,86.9 L25.6,86.9 Z M51.8,84.9 L27.6,84.9 L27.6,80.3 L51.8,80.3 L51.8,84.9 L51.8,84.9 Z" id="XMLID_3_"></path>
            </g>
        </g>
    </g>
</svg>